<?xml version="1.0" standalone="no"?>
<!DOCTYPE svg PUBLIC "-//W3C//DTD SVG 20010904//EN"
 "http://www.w3.org/TR/2001/REC-SVG-20010904/DTD/svg10.dtd">
<svg version="1.0" xmlns="http://www.w3.org/2000/svg"
 width="288.000000pt" height="288.000000pt" viewBox="0 0 288.000000 288.000000"
 preserveAspectRatio="xMidYMid meet">

<g transform="translate(0.000000,288.000000) scale(0.100000,-0.100000)"
fill="#000000" stroke="none">
<path d="M0 1440 l0 -1440 1440 0 1440 0 0 1440 0 1440 -1440 0 -1440 0 0
-1440z m1444 355 l196 -235 -160 0 -160 0 0 -228 c0 -164 3 -231 12 -240 9 -9
103 -12 360 -12 l348 0 0 -80 0 -80 -415 0 -416 0 -24 25 -25 24 0 296 0 295
-160 0 -160 0 196 235 c108 129 200 235 204 235 4 0 96 -106 204 -235z"/>
</g>
</svg>
