<svg xmlns="http://www.w3.org/2000/svg" width="80" height="80" viewBox="0 0 80 80">
  <g fill="#D8D8D8" fill-rule="evenodd">
    <path d="M40,80 C17.90861,80 0,62.09139 0,40 C0,17.90861 17.90861,0 40,0 C62.09139,0 80,17.90861 80,40 C80,62.09139 62.09139,80 40,80 Z M40,76 C59.882251,76 76,59.882251 76,40 C76,20.117749 59.882251,4 40,4 C20.117749,4 4,20.117749 4,40 C4,59.882251 20.117749,76 40,76 Z"/>
    <path d="M24.4335489,36.0065852 C22.1629335,33.0917835 20.8,29.493539 20.8,25.6 C20.8,15.8797884 29.2944851,8 39.2,8 C39.3193743,8 39.4358714,8.00232157 39.5495433,8.00691158 C31.805075,8.24488043 25.6,14.5978038 25.6,22.4 C25.6,30.3529004 32.0470996,36.8 40,36.8 C45.2872141,36.8 49.9088942,33.9505103 52.4131121,29.7034593 C55.7019158,29.4663763 59.0527201,30.1458234 62.0639876,31.8843795 C69.4393744,36.142561 72.3309096,45.341441 69.6029536,53.3242532 C69.8624452,52.2587084 70,51.145418 70,50 C70,42.2680135 63.7319865,36 56,36 C48.2680135,36 42,42.2680135 42,50 C42,52.289942 42.5497898,54.4514737 43.5245718,56.3597973 C42.0933331,59.4398423 39.7848101,62.1040432 36.6834424,63.8946187 C30.2343339,67.6180132 22.2278704,66.4835887 16.6084177,61.8919187 C18.7535845,63.2281024 21.2866491,64 24,64 C31.7319865,64 38,57.7319865 38,50 C38,42.4130555 31.9649404,36.2356747 24.4335489,36.0065852 Z"/>
  </g>
</svg>
