<?xml version="1.0" encoding="iso-8859-1"?>
<!-- Uploaded to: SVG Repo, www.svgrepo.com, Generator: SVG Repo Mixer Tools -->
<!DOCTYPE svg PUBLIC "-//W3C//DTD SVG 1.1//EN" "http://www.w3.org/Graphics/SVG/1.1/DTD/svg11.dtd">
<svg fill="#000000" height="800px" width="800px" version="1.1" id="Capa_1" xmlns="http://www.w3.org/2000/svg" xmlns:xlink="http://www.w3.org/1999/xlink" 
	 viewBox="0 0 384.156 384.156" xml:space="preserve">
<path d="M353.576,20.145H30.58C13.719,20.145,0,33.863,0,50.725V265.34c0,16.862,13.719,30.58,30.58,30.58h121.86l-29.271,30.702
	c-2.062,2.893-3.17,6.358-3.17,9.91v10.4c0,9.432,7.646,17.078,17.078,17.078h110c9.432,0,17.078-7.646,17.078-17.078v-10.4
	c0-3.553-1.108-7.017-3.17-9.91l-29.27-30.702h121.86c16.861,0,30.58-13.718,30.58-30.58V50.725
	C384.156,33.863,370.438,20.145,353.576,20.145z M350,261.765H192.094c-0.005,0-0.01-0.001-0.016-0.001
	c-0.006,0-0.011,0.001-0.016,0.001H34.156V54.3H350V261.765z"/>
</svg>